<svg width="63" height="25" viewBox="0 0 63 25" fill="none" xmlns="http://www.w3.org/2000/svg">
<g clip-path="url(#clip0)">
<path fill-rule="evenodd" clip-rule="evenodd" d="M50.9768 1.31934L50.9927 23.5412C50.9927 24.692 55.0058 24.692 55.0058 24.692V24.8295H44.4506V24.692C44.4506 24.692 47.5057 24.692 47.5057 23.5412V2.65605C47.4814 1.31934 44.4172 1.45684 44.4172 1.45684V1.31934H50.9768Z" fill="white"/>
<path fill-rule="evenodd" clip-rule="evenodd" d="M53.8736 13.0153C57.104 13.0153 59.1792 10.9926 59.1792 7.47856C59.1792 3.88638 57.7872 1.54419 53.8736 1.4645V1.32935H54.373C60.2829 1.32935 62.8871 3.4356 62.8871 6.94966C62.8871 10.7278 59.1603 13.152 53.8736 13.152V13.0153Z" fill="white"/>
<path fill-rule="evenodd" clip-rule="evenodd" d="M35.1505 24.6925C40.3628 24.6925 41.5431 16.8495 41.5431 16.8495H41.6767V24.8292H35.1505V24.6925ZM24.4291 24.8292V24.6925C24.4291 24.6925 27.4918 24.8292 27.5169 23.4925V2.60732C27.5169 1.45654 24.4625 1.45654 24.4625 1.45654V1.31982H35.0169V1.45654C35.0169 1.45654 31.0047 1.45654 31.0047 2.60732L30.9887 24.8292H24.4291Z" fill="white"/>
<path fill-rule="evenodd" clip-rule="evenodd" d="M9.55004 3.23701C10.725 2.78389 11.4955 1.83857 11.9365 0.780762H12.3038L18.3602 19.9378C19.5352 23.8675 20.0126 24.5097 21.7379 24.6237L22.7747 24.6925V24.8292H12.5528V24.6925L13.7354 24.6237C15.6436 24.5097 15.7172 23.3386 14.946 20.769L9.55004 3.23701ZM4.56166 20.7167C3.80034 23.5972 4.42047 24.3753 7.31088 24.6237L8.09117 24.6925V24.8292H-0.000152588V24.6925L0.592655 24.6237C2.21547 24.4042 3.14074 23.8659 4.42882 20.7167H4.56166Z" fill="white"/>
</g>
<defs>
<clipPath id="clip0">
<rect width="63" height="25" fill="white"/>
</clipPath>
</defs>
</svg>
